<?xml version="1.0" standalone="no"?>
<!DOCTYPE svg PUBLIC "-//W3C//DTD SVG 20010904//EN"
 "http://www.w3.org/TR/2001/REC-SVG-20010904/DTD/svg10.dtd">
<svg version="1.0" xmlns="http://www.w3.org/2000/svg"
 width="150.000000pt" height="150.000000pt" viewBox="0 0 550.000000 550.000000"
 preserveAspectRatio="xMidYMid meet">

<g transform="translate(0.000000,550.000000) scale(0.100000,-0.100000)"
fill="#000000" stroke="none">
<path d="M2144 5469 c-143 -24 -403 -146 -553 -260 -90 -68 -92 -69 -154 -69
-180 0 -386 -118 -491 -283 -99 -155 -127 -365 -71 -531 17 -50 12 -65 -21
-66 -23 0 -111 -44 -176 -87 -147 -97 -269 -274 -304 -443 -15 -73 -15 -235 1
-315 6 -26 2 -32 -27 -49 -18 -11 -63 -49 -100 -84 -264 -254 -299 -648 -82
-942 l44 -60 -27 -77 c-34 -102 -43 -282 -19 -386 33 -139 122 -289 225 -378
45 -39 156 -112 184 -122 7 -2 5 -25 -6 -70 -21 -82 -22 -233 -2 -309 33 -130
121 -264 220 -341 109 -83 297 -146 401 -134 42 4 44 3 54 -28 17 -52 103
-167 167 -224 69 -62 227 -143 328 -168 49 -12 110 -17 205 -16 116 0 147 4
223 27 209 63 365 184 448 348 63 125 59 -42 59 2399 0 2167 -1 2228 -19 2301
-52 201 -179 337 -343 368 -58 11 -92 11 -164 -1z m155 -169 c81 -23 147 -100
182 -209 18 -59 19 -96 19 -552 l0 -489 -72 55 c-89 67 -193 112 -296 127 -87
13 -123 7 -152 -24 -49 -53 1 -138 82 -138 181 -1 363 -140 419 -321 18 -58
19 -107 19 -1056 l0 -995 -50 45 c-66 59 -121 91 -211 121 -174 58 -278 40
-278 -49 0 -53 40 -85 106 -85 131 -1 285 -90 363 -212 69 -105 72 -132 68
-578 l-3 -395 -29 -60 c-63 -130 -218 -243 -383 -279 -298 -66 -624 83 -698
317 -35 111 -47 119 -168 110 -147 -10 -262 32 -364 133 -139 138 -178 338
-99 510 47 103 30 145 -71 178 -231 75 -401 351 -363 589 5 36 15 78 20 91 l9
25 53 -30 c116 -64 324 -108 379 -79 57 31 65 85 20 131 -23 23 -38 29 -73 29
-24 0 -72 7 -107 15 -280 66 -464 335 -423 618 14 96 68 215 132 289 83 95
229 171 357 183 87 9 101 13 123 37 29 32 26 74 -9 109 -34 33 -47 35 -166 14
-48 -9 -90 -13 -93 -10 -13 13 -20 115 -12 180 29 228 191 412 415 470 75 19
203 19 275 0 135 -36 271 -137 335 -250 50 -88 98 -107 151 -61 52 44 27 118
-84 254 -106 129 -344 242 -512 242 -39 0 -42 2 -61 46 -116 262 58 572 350
625 255 45 501 -142 530 -404 5 -43 16 -88 25 -101 28 -44 98 -42 133 3 33 43
0 232 -59 344 -43 80 -174 213 -251 253 l-59 31 49 30 c88 55 137 81 225 117
151 62 233 77 307 56z"/>
<path d="M1433 3248 c-40 -19 -49 -62 -30 -137 34 -128 97 -240 195 -343 l55
-58 -7 -71 c-24 -243 -164 -399 -398 -444 -88 -17 -124 -48 -114 -99 11 -53
38 -71 105 -69 132 5 285 78 388 184 95 97 138 178 168 312 14 66 20 77 34 71
9 -4 54 -21 101 -38 80 -29 93 -30 237 -31 138 0 154 2 180 21 33 25 43 58 30
97 -15 45 -52 57 -135 46 -184 -26 -372 41 -512 181 -84 84 -127 156 -160 270
-31 106 -73 139 -137 108z"/>
<path d="M1790 1375 c-36 -8 -103 -33 -150 -56 -153 -76 -310 -262 -310 -369
0 -63 64 -100 120 -70 11 6 36 43 57 82 104 199 318 297 526 243 84 -22 112
-20 136 11 28 36 27 85 -1 111 -55 50 -255 76 -378 48z"/>
<path d="M3181 5470 c-71 -15 -132 -50 -192 -110 -60 -59 -92 -113 -131 -220
l-23 -65 -3 -2243 c-3 -2462 -6 -2305 57 -2430 83 -164 238 -285 448 -348 77
-24 105 -27 228 -27 168 0 250 19 384 88 139 72 272 210 311 322 11 29 13 30
54 26 58 -7 195 22 270 56 173 80 303 235 350 417 21 81 20 227 -1 311 -11 45
-13 68 -6 70 28 10 139 83 184 122 103 89 192 239 225 378 24 104 15 284 -19
385 l-27 78 41 52 c182 238 193 571 29 824 -44 67 -155 179 -208 210 -29 17
-33 23 -27 49 16 80 16 242 1 315 -35 169 -157 346 -304 443 -65 43 -153 87
-176 87 -31 1 -35 15 -20 65 69 229 10 470 -156 635 -106 107 -241 169 -384
178 l-90 5 -89 68 c-175 132 -452 253 -607 263 -41 3 -95 1 -119 -4z m239
-190 c76 -26 246 -107 314 -151 l49 -31 -59 -31 c-91 -48 -213 -175 -257 -267
-59 -123 -86 -289 -54 -331 35 -45 105 -47 133 -3 9 13 20 59 25 101 30 269
285 455 547 399 94 -20 163 -57 235 -128 131 -130 171 -328 98 -492 -19 -44
-22 -46 -61 -46 -168 0 -406 -113 -512 -242 -111 -136 -136 -210 -84 -254 51
-44 98 -27 146 54 51 87 146 175 232 215 102 49 163 60 277 54 117 -6 202 -35
293 -100 130 -92 208 -223 228 -383 8 -64 1 -166 -12 -179 -3 -3 -47 2 -98 11
-51 8 -104 13 -119 9 -56 -14 -85 -67 -65 -120 9 -23 57 -45 101 -45 118 -1
273 -70 369 -166 217 -216 215 -569 -4 -783 -100 -99 -242 -161 -365 -161 -40
0 -53 -5 -78 -29 -38 -38 -39 -82 -3 -118 25 -25 29 -26 107 -20 93 6 216 43
295 86 l53 30 10 -26 c15 -41 30 -163 24 -202 -23 -143 -69 -245 -148 -329
-62 -66 -150 -125 -220 -148 -101 -33 -118 -75 -71 -178 14 -31 30 -85 36
-121 30 -180 -73 -381 -239 -467 -93 -48 -158 -62 -260 -55 -106 8 -127 -1
-149 -62 -56 -157 -130 -243 -266 -310 -190 -94 -409 -95 -598 -3 -95 47 -195
142 -236 227 l-29 60 -3 399 c-3 378 -2 403 17 467 23 75 87 168 147 216 77
60 187 103 267 103 67 0 106 32 107 88 0 37 -26 68 -67 78 -78 20 -282 -41
-373 -111 -25 -19 -57 -44 -72 -55 l-28 -21 0 994 c0 969 1 995 20 1052 63
182 237 314 417 315 88 0 136 88 78 145 -20 20 -34 25 -78 25 -120 0 -275 -59
-380 -145 l-58 -47 3 509 c3 505 3 508 26 566 29 71 103 153 157 173 52 19
151 12 235 -16z"/>
<path d="M3977 3238 c-16 -15 -33 -51 -47 -98 -58 -199 -210 -359 -404 -424
-83 -28 -190 -39 -267 -27 -57 9 -75 9 -98 -4 -55 -28 -58 -101 -8 -139 26
-19 42 -21 180 -21 144 0 156 2 237 31 47 17 93 34 102 38 13 6 18 2 23 -21
32 -163 87 -272 184 -368 100 -99 204 -152 344 -175 93 -14 130 3 143 67 10
50 -26 82 -114 98 -231 44 -374 203 -398 443 l-7 72 66 70 c77 81 137 184 172
293 36 113 32 147 -22 175 -33 18 -59 15 -86 -10z"/>
<path d="M3490 1384 c-70 -14 -137 -38 -157 -57 -31 -28 -31 -86 0 -115 27
-26 61 -27 137 -7 204 55 419 -45 523 -243 40 -75 58 -92 102 -92 95 0 101
100 13 232 -114 170 -297 274 -501 283 -50 2 -103 1 -117 -1z"/>
</g>
</svg>
